HIERARCHY
ROOT Hips
{
    OFFSET 0.000000 0.000000 0.000000
    CHANNELS 6 Xposition Yposition Zposition Zrotation Xrotation Yrotation
    JOINT Spine
    {
        OFFSET -0.000000 7.236184 0.000000
        CHANNELS 3 Zrotation Xrotation Yrotation
        JOINT Spine1
        {
            OFFSET -0.000000 20.420147 0.000000
            CHANNELS 3 Zrotation Xrotation Yrotation
            JOINT Neck
            {
                OFFSET -0.000000 20.336288 1.848754
                CHANNELS 3 Zrotation Xrotation Yrotation
                JOINT Head
                {
                    OFFSET -0.000000 12.354461 -1.764923
                    CHANNELS 3 Zrotation Xrotation Yrotation
                    End Site
                    {
                        OFFSET -0.000000 22.061537 0.000000
                    }
                }
            }
            JOINT LeftShoulder
            {
                OFFSET 3.573296 18.396038 -0.314103
                CHANNELS 3 Zrotation Xrotation Yrotation
                JOINT LeftArm
                {
                    OFFSET 10.880760 0.000000 0.000000
                    CHANNELS 3 Zrotation Xrotation Yrotation
                    JOINT LeftForeArm
                    {
                        OFFSET 27.185530 0.000000 0.000000
                        CHANNELS 3 Zrotation Xrotation Yrotation
                        JOINT LeftHand
                        {
                            OFFSET 27.825975 0.000000 0.000000
                            CHANNELS 3 Zrotation Xrotation Yrotation
                            End Site
                            {
                                OFFSET 13.236923 0.000000 0.000000
                            }
                        }
                    }
                }
            }
            JOINT RightShoulder
            {
                OFFSET -3.474926 18.396038 -0.314103
                CHANNELS 3 Zrotation Xrotation Yrotation
                JOINT RightArm
                {
                    OFFSET -10.880760 0.000000 0.000000
                    CHANNELS 3 Zrotation Xrotation Yrotation
                    JOINT RightForeArm
                    {
                        OFFSET -27.185530 0.000000 0.000000
                        CHANNELS 3 Zrotation Xrotation Yrotation
                        JOINT RightHand
                        {
                            OFFSET -27.825975 0.000000 0.000000
                            CHANNELS 3 Zrotation Xrotation Yrotation
                            End Site
                            {
                                OFFSET -13.236923 0.000000 0.000000
                            }
                        }
                    }
                }
            }
        }
    }
    JOINT LeftUpLeg
    {
        OFFSET 8.824615 0.000000 0.000000
        CHANNELS 3 Zrotation Xrotation Yrotation
        JOINT LeftLeg
        {
            OFFSET -0.000000 -35.111282 0.000000
            CHANNELS 3 Zrotation Xrotation Yrotation
            JOINT LeftFoot
            {
                OFFSET -0.000000 -42.324711 0.000000
                CHANNELS 3 Zrotation Xrotation Yrotation
                JOINT LeftToeBase
                {
                    OFFSET -0.000000 -5.735999 13.236923
                    CHANNELS 3 Zrotation Xrotation Yrotation
                    End Site
                    {
                        OFFSET -0.000000 0.000000 3.529846
                    }
                }
            }
        }
    }
    JOINT RightUpLeg
    {
        OFFSET -8.824615 0.000000 0.000000
        CHANNELS 3 Zrotation Xrotation Yrotation
        JOINT RightLeg
        {
            OFFSET -0.000000 -35.111282 0.000000
            CHANNELS 3 Zrotation Xrotation Yrotation
            JOINT RightFoot
            {
                OFFSET -0.000000 -42.324711 0.000000
                CHANNELS 3 Zrotation Xrotation Yrotation
                JOINT RightToeBase
                {
                    OFFSET -0.000000 -5.735999 13.236923
                    CHANNELS 3 Zrotation Xrotation Yrotation
                    End Site
                    {
                        OFFSET -0.000000 0.000000 3.529846
                    }
                }
            }
        }
    }
}
MOTION
Frames:    9
Frame Time:    0.008333
0.079750    81.019249    96.680267    -0.373305    -2.777177    -175.306641    -1.791296    -14.145603    0.776464    -0.113423    6.696866    1.005408    1.751956    5.012403    -4.483857    8.577857    4.306250    -3.944286    0.797827    18.242840    -2.640361    -44.281712    46.837620    -39.328655    -2.931107    -4.328402    -17.152420    18.449697    -4.036048    4.524889    6.679856    19.762848    -3.646886    38.501400    46.777988    41.629505    1.123694    -5.803675    17.126341    -14.697601    -5.397253    -4.475559    4.471142    -2.991276    0.190233    -2.417211    8.945946    -0.278497    -1.516665    -8.012417    -8.331494    -0.035761    0.245253    0.039622    -2.647513    0.062983    2.693329    3.542767    5.911214    5.655958    -3.341852    -7.415304    -14.636209    -0.388035    0.323889    0.419504    
0.078547    81.018951    96.675751    -0.373844    -2.784457    -175.305481    -1.791745    -14.143229    0.777327    -0.116124    6.693145    1.006517    1.752595    5.012668    -4.478702    8.568056    4.309144    -3.940235    0.796123    18.241693    -2.639637    -44.278984    46.840607    -39.328186    -2.929490    -4.328447    -17.152683    18.448593    -4.036293    4.522603    6.680139    19.762474    -3.644783    38.502235    46.779484    41.628941    1.124435    -5.801986    17.124859    -14.698944    -5.395744    -4.474450    4.469074    -2.994034    0.189557    -2.416955    8.943238    -0.277170    -1.516527    -8.013063    -8.332797    -0.036031    0.244662    0.039922    -2.647544    0.055161    2.689479    3.540475    5.918127    5.652716    -3.344456    -7.417051    -14.632273    -0.388273    0.325024    0.419761    
0.077405    81.018684    96.671425    -0.374197    -2.791978    -175.304291    -1.792242    -14.141045    0.778230    -0.118513    6.689195    1.007504    1.753137    5.013090    -4.473825    8.558486    4.311188    -3.936371    0.794760    18.240959    -2.639287    -44.276176    46.843357    -39.328159    -2.927990    -4.328338    -17.152700    18.447683    -4.036368    4.520257    6.680368    19.762032    -3.642967    38.503788    46.780811    41.627972    1.125216    -5.800013    17.123188    -14.700354    -5.393938    -4.473420    4.467363    -2.997142    0.189367    -2.416974    8.940467    -0.276361    -1.515933    -8.013591    -8.333832    -0.036072    0.244010    0.039967    -2.647428    0.047475    2.685689    3.538224    5.924143    5.649598    -3.346452    -7.418645    -14.628582    -0.388909    0.326218    0.420448    
0.076294    81.018478    96.667221    -0.374358    -2.799816    -175.303055    -1.792693    -14.138910    0.779089    -0.120825    6.684970    1.008518    1.754044    5.013796    -4.469085    8.548401    4.312091    -3.932629    0.793813    18.240400    -2.639353    -44.273693    46.845734    -39.328114    -2.926797    -4.327817    -17.152443    18.447048    -4.036103    4.517772    6.680942    19.761835    -3.641707    38.505402    46.781593    41.627178    1.126171    -5.797707    17.121201    -14.701692    -5.391853    -4.472322    4.465867    -3.000585    0.189590    -2.417103    8.937499    -0.275742    -1.514811    -8.014035    -8.334875    -0.035922    0.243785    0.039801    -2.647161    0.039841    2.681782    3.535994    5.929329    5.646519    -3.345182    -7.420520    -14.624513    -0.389635    0.326623    0.421232    
0.075213    81.018341    96.663246    -0.374405    -2.808045    -175.301804    -1.793214    -14.137129    0.779833    -0.122852    6.680638    1.009477    1.754786    5.014688    -4.464569    8.538552    4.311779    -3.928992    0.793079    18.240067    -2.639646    -44.271400    46.847912    -39.328110    -2.925601    -4.327163    -17.152122    18.446451    -4.035690    4.515291    6.681581    19.761564    -3.640867    38.507576    46.781845    41.626060    1.127374    -5.795028    17.118982    -14.702975    -5.389446    -4.471035    4.464521    -3.004612    0.190316    -2.417339    8.934551    -0.275511    -1.513379    -8.014487    -8.335860    -0.035702    0.243860    0.039557    -2.646897    0.032101    2.677838    3.533938    5.933530    5.643333    -3.345701    -7.421772    -14.620515    -0.390676    0.327647    0.422357    
0.074137    81.018257    96.659431    -0.374346    -2.816716    -175.300644    -1.793786    -14.135680    0.780567    -0.124581    6.676212    1.010347    1.755486    5.015788    -4.460163    8.528541    4.310130    -3.925408    0.792418    18.239809    -2.640088    -44.269482    46.849785    -39.327969    -2.924680    -4.326305    -17.151621    18.445810    -4.035123    4.512754    6.682259    19.761686    -3.640532    38.509750    46.781475    41.625458    1.128797    -5.792089    17.116306    -14.704359    -5.386826    -4.469507    4.463266    -3.009118    0.191274    -2.417594    8.931483    -0.275711    -1.511747    -8.014986    -8.336519    -0.035444    0.244393    0.039272    -2.646692    0.024276    2.674035    3.532065    5.936976    5.640433    -3.347101    -7.422838    -14.616897    -0.391781    0.329042    0.423551    
0.073077    81.018242    96.655807    -0.374101    -2.825636    -175.299515    -1.794265    -14.134476    0.781259    -0.126089    6.671791    1.011161    1.756131    5.017128    -4.455920    8.518602    4.307274    -3.921862    0.791879    18.239534    -2.640664    -44.268013    46.851456    -39.327583    -2.923786    -4.325365    -17.150974    18.444963    -4.034451    4.510263    6.683065    19.761862    -3.640547    38.511909    46.780937    41.625023    1.130116    -5.789120    17.113373    -14.705797    -5.384189    -4.467860    4.462208    -3.014013    0.192557    -2.417848    8.928475    -0.276241    -1.510085    -8.015503    -8.337101    -0.035164    0.245127    0.038961    -2.646456    0.016519    2.670614    3.530455    5.939535    5.637513    -3.345841    -7.424141    -14.612922    -0.392607    0.329876    0.424443    
0.072009    81.018318    96.652351    -0.373791    -2.834926    -175.298492    -1.794790    -14.133730    0.781887    -0.127298    6.667461    1.011932    1.756711    5.018719    -4.451756    8.508605    4.303147    -3.918319    0.791391    18.239262    -2.641460    -44.267101    46.852856    -39.326778    -2.923005    -4.324436    -17.150366    18.443775    -4.033810    4.507974    6.683897    19.762312    -3.640789    38.514206    46.779736    41.624763    1.131646    -5.785906    17.110043    -14.707468    -5.381340    -4.465933    4.461150    -3.019303    0.193886    -2.418088    8.925276    -0.276739    -1.508238    -8.015862    -8.337662    -0.034940    0.246172    0.038713    -2.646382    0.008706    2.667721    3.529134    5.941350    5.634966    -3.346177    -7.425155    -14.609635    -0.393198    0.331023    0.425082    
0.070923    81.018448    96.649078    -0.373410    -2.844725    -175.297623    -1.795308    -14.133349    0.782511    -0.128238    6.663033    1.012630    1.757329    5.020335    -4.447569    8.498159    4.297949    -3.914695    0.790763    18.238899    -2.641997    -44.266350    46.854382    -39.325886    -2.922265    -4.323571    -17.149830    18.442425    -4.033214    4.505935    6.684481    19.762838    -3.641176    38.516636    46.778732    41.624718    1.132746    -5.782753    17.106461    -14.709201    -5.378484    -4.464066    4.460176    -3.025209    0.195359    -2.418343    8.922206    -0.277554    -1.506554    -8.016143    -8.337943    -0.034776    0.246852    0.038531    -2.646430    0.000560    2.665334    3.527965    5.942615    5.632668    -3.345390    -7.426260    -14.606452    -0.393425    0.331964    0.425326    
